<svg width="38" height="38" viewBox="0 0 38 38" fill="none" xmlns="http://www.w3.org/2000/svg">
<path d="M27.4294 0.0412972C25.2642 0.244507 22.2 1.79668 20.6785 3.45695C19.8007 4.40815 19.2847 5.31611 18.8378 6.68237L18.6144 7.3655L18.625 8.09187C18.6357 8.48964 18.6623 8.86147 18.6889 8.922C18.758 9.06468 18.891 9.0863 19.8273 9.09062C20.604 9.09495 20.6519 9.09062 21.3169 8.93065C23.0937 8.51126 24.3971 7.88001 25.3227 6.98502C25.5462 6.76452 25.8813 6.47051 26.0569 6.32351C26.6421 5.85656 27.3922 4.81889 27.8071 3.91958C28.2221 3.01594 28.4083 2.17716 28.4615 0.983845L28.4934 0.218565L28.3551 0.106151C28.2008 -0.0192335 28.1157 -0.0235571 27.4294 0.0412972Z" fill="#717171"/>
<path d="M26.9347 8.97822C25.8813 9.02146 23.0458 9.66136 21.0083 10.3099C19.7741 10.7033 19.7741 10.7033 19.5294 10.7379C19.1038 10.7941 18.0611 10.5477 16.2683 9.95969C15.316 9.65271 14.3372 9.41923 12.8902 9.15117C12.2837 9.04308 11.2782 9.03011 10.842 9.12955C10.6665 9.16846 10.1132 9.25926 9.61312 9.32844C8.53851 9.48409 7.93204 9.63541 7.12342 9.95969C4.6816 10.9282 3.01647 12.3204 1.69714 14.4995C1.11196 15.4593 0.681047 16.3975 0.361854 17.3963C-0.111615 18.8793 -0.122255 21.7242 0.340574 23.4494C0.393773 23.6612 0.441652 23.912 0.441652 24.0114C0.441652 24.219 0.489531 24.3746 0.936401 25.8057C1.35135 27.1288 1.30879 27.0207 2.10145 28.6377C3.21331 30.9076 3.56442 31.4091 5.83601 33.9557C6.76699 34.9977 7.24046 35.4733 7.92672 36.0397C8.64491 36.6364 9.22477 36.9823 10.044 37.3109C10.9697 37.6784 11.374 37.7605 12.2252 37.7562C13.3158 37.7562 14.1935 37.5746 15.864 37.0039C16.9173 36.645 16.9865 36.6277 18.9016 36.3078C19.4762 36.2083 20.0082 36.217 20.8168 36.3251C21.0934 36.3597 21.5084 36.4116 21.7318 36.4375C22.184 36.4894 22.6415 36.6104 23.8225 36.9952C25.2482 37.4622 26.2537 37.6697 27.307 37.7216C28.8392 37.7994 30.3181 37.246 31.8981 36.0138C33.51 34.747 35.0155 33.0132 36.537 30.6741C36.9467 30.0429 37.601 28.7501 37.7127 28.361C37.7606 28.2053 37.8404 28.0108 37.8989 27.933C37.9521 27.8551 38 27.747 38 27.6995C38 27.5438 37.6116 27.2974 36.9254 27.0163C35.6327 26.4759 34.3612 25.5506 33.5047 24.5086C32.8929 23.7607 32.2758 22.6408 32.1215 21.9793C31.8609 20.8898 31.7864 19.6965 31.9353 18.8663C31.9726 18.6502 32.1056 18.1962 32.2333 17.8503C32.7812 16.35 33.1589 15.749 34.0154 15.0053C34.2761 14.7848 34.4889 14.5816 34.4889 14.5643C34.4889 14.4908 35.7922 13.6045 36.1114 13.4618C36.287 13.3797 36.5104 13.2543 36.6062 13.1765C36.8988 12.943 36.8562 12.8522 36.1221 12.1518C35.1379 11.2135 33.8984 10.4439 32.4407 9.86889C31.531 9.51003 30.9033 9.33276 30.0255 9.18576C29.1264 9.03011 27.7858 8.93931 26.9347 8.97822Z" fill="#717171"/>
</svg>
